<mxfile host="app.diagrams.net" modified="2020-09-22T03:06:37.593Z" agent="5.0 (Windows)" etag="0nssU32tEnmgxn7P1uoZ" version="13.7.3" type="github">
  <diagram id="w0lkWOeosl44fqyQ6g0a" name="Page-1">
    <mxGraphModel dx="1120" dy="785" grid="1" gridSize="10" guides="1" tooltips="1" connect="1" arrows="1" fold="1" page="1" pageScale="1" pageWidth="850" pageHeight="1100" math="0" shadow="0">
      <root>
        <mxCell id="0" />
        <mxCell id="1" parent="0" />
        <mxCell id="y_cUFfETPTS4RfQRAgS1-1" value="" style="rounded=1;whiteSpace=wrap;html=1;" vertex="1" parent="1">
          <mxGeometry x="260" y="80" width="120" height="60" as="geometry" />
        </mxCell>
        <mxCell id="y_cUFfETPTS4RfQRAgS1-2" value="" style="rounded=0;whiteSpace=wrap;html=1;" vertex="1" parent="1">
          <mxGeometry x="260" y="210" width="120" height="60" as="geometry" />
        </mxCell>
        <mxCell id="y_cUFfETPTS4RfQRAgS1-3" value="" style="rounded=0;whiteSpace=wrap;html=1;" vertex="1" parent="1">
          <mxGeometry x="30" y="320" width="130" height="70" as="geometry" />
        </mxCell>
        <mxCell id="y_cUFfETPTS4RfQRAgS1-4" value="" style="rounded=0;whiteSpace=wrap;html=1;" vertex="1" parent="1">
          <mxGeometry x="210" y="320" width="130" height="70" as="geometry" />
        </mxCell>
        <mxCell id="y_cUFfETPTS4RfQRAgS1-5" value="" style="rounded=0;whiteSpace=wrap;html=1;" vertex="1" parent="1">
          <mxGeometry x="430" y="320" width="130" height="70" as="geometry" />
        </mxCell>
        <mxCell id="y_cUFfETPTS4RfQRAgS1-6" value="" style="rounded=0;whiteSpace=wrap;html=1;" vertex="1" parent="1">
          <mxGeometry x="110" y="500" width="160" height="70" as="geometry" />
        </mxCell>
        <mxCell id="y_cUFfETPTS4RfQRAgS1-7" value="" style="rounded=0;whiteSpace=wrap;html=1;" vertex="1" parent="1">
          <mxGeometry x="430" y="500" width="150" height="70" as="geometry" />
        </mxCell>
        <mxCell id="y_cUFfETPTS4RfQRAgS1-8" value="" style="rounded=0;whiteSpace=wrap;html=1;" vertex="1" parent="1">
          <mxGeometry x="680" y="450" width="120" height="60" as="geometry" />
        </mxCell>
        <mxCell id="y_cUFfETPTS4RfQRAgS1-9" value="" style="rounded=0;whiteSpace=wrap;html=1;" vertex="1" parent="1">
          <mxGeometry x="680" y="550" width="120" height="60" as="geometry" />
        </mxCell>
        <mxCell id="y_cUFfETPTS4RfQRAgS1-10" value="" style="rounded=1;whiteSpace=wrap;html=1;" vertex="1" parent="1">
          <mxGeometry x="870" y="490" width="120" height="60" as="geometry" />
        </mxCell>
        <mxCell id="y_cUFfETPTS4RfQRAgS1-13" value="" style="endArrow=classic;html=1;exitX=0.5;exitY=1;exitDx=0;exitDy=0;entryX=0.5;entryY=0;entryDx=0;entryDy=0;" edge="1" parent="1" source="y_cUFfETPTS4RfQRAgS1-1" target="y_cUFfETPTS4RfQRAgS1-2">
          <mxGeometry width="50" height="50" relative="1" as="geometry">
            <mxPoint x="310" y="430" as="sourcePoint" />
            <mxPoint x="360" y="380" as="targetPoint" />
          </mxGeometry>
        </mxCell>
        <mxCell id="y_cUFfETPTS4RfQRAgS1-14" value="" style="endArrow=classic;html=1;exitX=0;exitY=0.5;exitDx=0;exitDy=0;entryX=0.623;entryY=-0.029;entryDx=0;entryDy=0;entryPerimeter=0;" edge="1" parent="1" source="y_cUFfETPTS4RfQRAgS1-2" target="y_cUFfETPTS4RfQRAgS1-3">
          <mxGeometry width="50" height="50" relative="1" as="geometry">
            <mxPoint x="310" y="430" as="sourcePoint" />
            <mxPoint x="120" y="240" as="targetPoint" />
            <Array as="points">
              <mxPoint x="111" y="240" />
            </Array>
          </mxGeometry>
        </mxCell>
        <mxCell id="y_cUFfETPTS4RfQRAgS1-15" value="" style="endArrow=classic;html=1;exitX=0.5;exitY=1;exitDx=0;exitDy=0;entryX=0.5;entryY=0;entryDx=0;entryDy=0;" edge="1" parent="1" source="y_cUFfETPTS4RfQRAgS1-2" target="y_cUFfETPTS4RfQRAgS1-4">
          <mxGeometry width="50" height="50" relative="1" as="geometry">
            <mxPoint x="310" y="430" as="sourcePoint" />
            <mxPoint x="360" y="380" as="targetPoint" />
            <Array as="points">
              <mxPoint x="275" y="280" />
            </Array>
          </mxGeometry>
        </mxCell>
        <mxCell id="y_cUFfETPTS4RfQRAgS1-16" value="" style="endArrow=classic;html=1;exitX=1;exitY=0.5;exitDx=0;exitDy=0;entryX=0.5;entryY=0;entryDx=0;entryDy=0;" edge="1" parent="1" source="y_cUFfETPTS4RfQRAgS1-2" target="y_cUFfETPTS4RfQRAgS1-5">
          <mxGeometry width="50" height="50" relative="1" as="geometry">
            <mxPoint x="310" y="430" as="sourcePoint" />
            <mxPoint x="360" y="380" as="targetPoint" />
            <Array as="points">
              <mxPoint x="495" y="240" />
            </Array>
          </mxGeometry>
        </mxCell>
        <mxCell id="y_cUFfETPTS4RfQRAgS1-17" value="" style="strokeWidth=2;html=1;shape=mxgraph.flowchart.annotation_2;align=left;labelPosition=right;pointerEvents=1;rotation=90;direction=west;" vertex="1" parent="1">
          <mxGeometry x="165" y="350" width="50" height="140" as="geometry" />
        </mxCell>
        <mxCell id="y_cUFfETPTS4RfQRAgS1-18" value="" style="endArrow=classic;html=1;exitX=0;exitY=0.5;exitDx=0;exitDy=0;exitPerimeter=0;entryX=0.5;entryY=0;entryDx=0;entryDy=0;" edge="1" parent="1" source="y_cUFfETPTS4RfQRAgS1-17" target="y_cUFfETPTS4RfQRAgS1-6">
          <mxGeometry width="50" height="50" relative="1" as="geometry">
            <mxPoint x="310" y="430" as="sourcePoint" />
            <mxPoint x="360" y="380" as="targetPoint" />
          </mxGeometry>
        </mxCell>
        <mxCell id="y_cUFfETPTS4RfQRAgS1-19" value="" style="endArrow=classic;html=1;exitX=1;exitY=0.5;exitDx=0;exitDy=0;entryX=0;entryY=0.5;entryDx=0;entryDy=0;" edge="1" parent="1" source="y_cUFfETPTS4RfQRAgS1-6" target="y_cUFfETPTS4RfQRAgS1-7">
          <mxGeometry width="50" height="50" relative="1" as="geometry">
            <mxPoint x="310" y="430" as="sourcePoint" />
            <mxPoint x="360" y="380" as="targetPoint" />
          </mxGeometry>
        </mxCell>
        <mxCell id="y_cUFfETPTS4RfQRAgS1-20" value="" style="endArrow=classic;html=1;entryX=0.593;entryY=-0.029;entryDx=0;entryDy=0;entryPerimeter=0;exitX=0.684;exitY=1;exitDx=0;exitDy=0;exitPerimeter=0;" edge="1" parent="1" source="y_cUFfETPTS4RfQRAgS1-5" target="y_cUFfETPTS4RfQRAgS1-7">
          <mxGeometry width="50" height="50" relative="1" as="geometry">
            <mxPoint x="519" y="400" as="sourcePoint" />
            <mxPoint x="360" y="380" as="targetPoint" />
          </mxGeometry>
        </mxCell>
        <mxCell id="y_cUFfETPTS4RfQRAgS1-21" value="" style="strokeWidth=2;html=1;shape=mxgraph.flowchart.annotation_2;align=left;labelPosition=right;pointerEvents=1;" vertex="1" parent="1">
          <mxGeometry x="580" y="485" width="50" height="100" as="geometry" />
        </mxCell>
        <mxCell id="y_cUFfETPTS4RfQRAgS1-22" value="" style="endArrow=classic;html=1;exitX=1;exitY=0;exitDx=0;exitDy=0;exitPerimeter=0;entryX=0;entryY=0.5;entryDx=0;entryDy=0;" edge="1" parent="1" source="y_cUFfETPTS4RfQRAgS1-21" target="y_cUFfETPTS4RfQRAgS1-8">
          <mxGeometry width="50" height="50" relative="1" as="geometry">
            <mxPoint x="640" y="430" as="sourcePoint" />
            <mxPoint x="690" y="380" as="targetPoint" />
          </mxGeometry>
        </mxCell>
        <mxCell id="y_cUFfETPTS4RfQRAgS1-23" value="" style="endArrow=classic;html=1;exitX=1;exitY=1;exitDx=0;exitDy=0;exitPerimeter=0;entryX=0;entryY=0.5;entryDx=0;entryDy=0;" edge="1" parent="1" source="y_cUFfETPTS4RfQRAgS1-21" target="y_cUFfETPTS4RfQRAgS1-9">
          <mxGeometry width="50" height="50" relative="1" as="geometry">
            <mxPoint x="640" y="430" as="sourcePoint" />
            <mxPoint x="690" y="380" as="targetPoint" />
          </mxGeometry>
        </mxCell>
        <mxCell id="y_cUFfETPTS4RfQRAgS1-24" value="" style="endArrow=classic;html=1;exitX=1.017;exitY=0.15;exitDx=0;exitDy=0;entryX=0.5;entryY=0;entryDx=0;entryDy=0;exitPerimeter=0;" edge="1" parent="1" source="y_cUFfETPTS4RfQRAgS1-8" target="y_cUFfETPTS4RfQRAgS1-10">
          <mxGeometry width="50" height="50" relative="1" as="geometry">
            <mxPoint x="640" y="430" as="sourcePoint" />
            <mxPoint x="940" y="470" as="targetPoint" />
            <Array as="points">
              <mxPoint x="930" y="460" />
            </Array>
          </mxGeometry>
        </mxCell>
        <mxCell id="y_cUFfETPTS4RfQRAgS1-25" value="" style="endArrow=classic;html=1;exitX=1;exitY=0.75;exitDx=0;exitDy=0;entryX=0.5;entryY=1;entryDx=0;entryDy=0;" edge="1" parent="1" source="y_cUFfETPTS4RfQRAgS1-9" target="y_cUFfETPTS4RfQRAgS1-10">
          <mxGeometry width="50" height="50" relative="1" as="geometry">
            <mxPoint x="640" y="430" as="sourcePoint" />
            <mxPoint x="690" y="380" as="targetPoint" />
            <Array as="points">
              <mxPoint x="930" y="590" />
            </Array>
          </mxGeometry>
        </mxCell>
        <mxCell id="y_cUFfETPTS4RfQRAgS1-26" value="Start" style="text;html=1;strokeColor=none;fillColor=none;align=center;verticalAlign=middle;whiteSpace=wrap;rounded=0;" vertex="1" parent="1">
          <mxGeometry x="270" y="100" width="100" height="20" as="geometry" />
        </mxCell>
        <mxCell id="y_cUFfETPTS4RfQRAgS1-27" value="&lt;div&gt;Dataset&lt;/div&gt;&lt;div&gt;&lt;br&gt;&lt;/div&gt;" style="text;html=1;strokeColor=none;fillColor=none;align=center;verticalAlign=middle;whiteSpace=wrap;rounded=0;" vertex="1" parent="1">
          <mxGeometry x="340" y="160" width="40" height="20" as="geometry" />
        </mxCell>
        <mxCell id="y_cUFfETPTS4RfQRAgS1-28" value="Preprocess" style="text;html=1;strokeColor=none;fillColor=none;align=center;verticalAlign=middle;whiteSpace=wrap;rounded=0;" vertex="1" parent="1">
          <mxGeometry x="270" y="220" width="100" height="30" as="geometry" />
        </mxCell>
        <mxCell id="y_cUFfETPTS4RfQRAgS1-29" value="Training Dataset" style="text;html=1;strokeColor=none;fillColor=none;align=center;verticalAlign=middle;whiteSpace=wrap;rounded=0;" vertex="1" parent="1">
          <mxGeometry x="35" y="330" width="120" height="50" as="geometry" />
        </mxCell>
        <mxCell id="y_cUFfETPTS4RfQRAgS1-30" value="Validation Dataset" style="text;html=1;strokeColor=none;fillColor=none;align=center;verticalAlign=middle;whiteSpace=wrap;rounded=0;" vertex="1" parent="1">
          <mxGeometry x="220" y="330" width="110" height="50" as="geometry" />
        </mxCell>
        <mxCell id="y_cUFfETPTS4RfQRAgS1-31" value="Training LSTM with Local Attention" style="text;html=1;strokeColor=none;fillColor=none;align=center;verticalAlign=middle;whiteSpace=wrap;rounded=0;" vertex="1" parent="1">
          <mxGeometry x="130" y="510" width="120" height="50" as="geometry" />
        </mxCell>
        <mxCell id="y_cUFfETPTS4RfQRAgS1-32" value="Training Dataset" style="text;html=1;strokeColor=none;fillColor=none;align=center;verticalAlign=middle;whiteSpace=wrap;rounded=0;" vertex="1" parent="1">
          <mxGeometry x="440" y="330" width="110" height="50" as="geometry" />
        </mxCell>
        <mxCell id="y_cUFfETPTS4RfQRAgS1-33" value="Trained model" style="text;html=1;strokeColor=none;fillColor=none;align=center;verticalAlign=middle;whiteSpace=wrap;rounded=0;" vertex="1" parent="1">
          <mxGeometry x="440" y="510" width="140" height="50" as="geometry" />
        </mxCell>
        <mxCell id="y_cUFfETPTS4RfQRAgS1-34" value="Actual Summary" style="text;html=1;strokeColor=none;fillColor=none;align=center;verticalAlign=middle;whiteSpace=wrap;rounded=0;" vertex="1" parent="1">
          <mxGeometry x="690" y="460" width="100" height="40" as="geometry" />
        </mxCell>
        <mxCell id="y_cUFfETPTS4RfQRAgS1-35" value="Model Summary" style="text;html=1;strokeColor=none;fillColor=none;align=center;verticalAlign=middle;whiteSpace=wrap;rounded=0;" vertex="1" parent="1">
          <mxGeometry x="690" y="560" width="100" height="40" as="geometry" />
        </mxCell>
        <mxCell id="y_cUFfETPTS4RfQRAgS1-36" value="End" style="text;html=1;strokeColor=none;fillColor=none;align=center;verticalAlign=middle;whiteSpace=wrap;rounded=0;" vertex="1" parent="1">
          <mxGeometry x="880" y="500" width="100" height="50" as="geometry" />
        </mxCell>
      </root>
    </mxGraphModel>
  </diagram>
</mxfile>
